<svg xmlns:rdf="http://www.w3.org/1999/02/22-rdf-syntax-ns#" xmlns="http://www.w3.org/2000/svg" xmlns:cc="http://web.resource.org/cc/" xmlns:xlink="http://www.w3.org/1999/xlink" xmlns:dc="http://purl.org/dc/elements/1.1/" xmlns:svg="http://www.w3.org/2000/svg" xmlns:inkscape="http://www.inkscape.org/namespaces/inkscape" xmlns:sodipodi="http://sodipodi.sourceforge.net/DTD/sodipodi-0.dtd" xmlns:ns1="http://sozi.baierouge.fr" id="Layer_1" enable-background="new 0 0 612 792" xml:space="preserve" viewBox="0 0 612 792" version="1.1" y="0px" x="0px">
<path stroke="#ffffff" stroke-width="2" stroke-miterlimit="10" d="m261 308c9.715 30.094 1.876 70.562 5 103.28 0.861 9.017 8.118 36.313-6.829 39.593-2.987-8.227 0.754-21.081-3.92-27.788-0.513 2.515-2.23 5.269-2.529 7.896-10.19-15.15 2.26-51.24 2.28-68.98 0.034-23.637-4.944-49.387-2.829-72.829 0.958-1.835 3.234-3.63 5.856-4.546 0.006 0.019 1.126 2.5 1.256 2.716 7.502-0.691 14.757-2.566 22.145-3.818 0 0 4.139-0.651 6.232-0.864 2.089 2.503 12.194-2.899 15.356-2.719 2.142 0.122 2.155 2.772 3.235 2.865 2.016 0.172 6.543 2.093 8.749 2.418 2.942 0.434 6.342-0.699 8.803-1.071 0.675 1.826 1.888 2.785 2.368 4.678 24.225 7.639 20.447 49.783 13.559 68.9-1.91 5.3-5.48 12.424-5.777 18.271-0.319 6.286 3.054 13.781 3.044 20.003-0.018 11.999-2.468 24.897-1.948 36.694-5.592-13.094-11.122-20.474-9.103-34.92 3.326-23.809 7.744-48.18 10.106-71.881 1.802-18.083 0 0 0 0 5.605-24.262-48.108 50.383-58.187-6.896-9.87 15.01-17.87-48.99-14.87-9.99" fill="none"/>
<path stroke="#ffffff" stroke-width="2" stroke-miterlimit="10" d="m267 463c-1.072-4.338-0.476-9.391-1.777-13.697-2.646 16.404 7.177 33.982 7.777 50.697 0.633 17.607-2.019 35.038-2 53 0.011 10.678-10.639 38.217 0.226 42.774 5.21 2.186 18.549 0.081 24.777 1.026 9.855 1.495 16.146 0.531 25.02-1.853 4.451-1.195 9.461-2.153 13.996-1.374 3.3-13.7 0.636-29.195 3.227-43.352 2.982-16.301-0.583-30.625-2.246-47.223-1.512-15.083-4.598-29.81-6.977-45-2.443-15.601-1.855-27.977-2.023-43" fill="none"/>
<path stroke="#ffffff" stroke-width="2" stroke-miterlimit="10" d="m268 431c2.103-6.552 5.916-8.979 5.997-16.996 0.065-6.503-3.792-14.295-0.968-20.65 6.812 23.788 12.618 48.198 17.194 73.395 7.916-18.683 1.656-44.955-2.251-63.772-1.682-8.098-1.39-14.802-0.975-22.977 0.555-10.938-3.803-11.6-7.294-19.977-7.913-18.991 12.606-29.431 15.246-4.023 1.728 16.63 0.347 33.959 1.203 50.849 7.357 1.209 4.716-8.584 5.02-13.646 5.374 9.649 3.527 23.161 9.08 33.444 0.714-1.468 2.116-2.861 2.797-4.315-0.239 2.143-1.151 10.068 1.155 11.518 5.798 3.644 4.784-3.587 5.801-5.845 2.182-4.848 3.992-14.209 3.996-19.701 0 0.882 0.097 1.822 0 2.697" fill="none"/>
<path stroke="#ffffff" stroke-width="2" stroke-miterlimit="10" d="m250.53 233.83c-1.838 17.85 9.7 32.556 27.334 35.784 1.289 0.236 2.539 0.416 3.751 0.543 37.679 3.951 38.224-43.498 15.083-63.957-12.516-11.066-34.391-52.255-55.901-37.102 8.636 9.404 17.854 10.122 18.912 25.007 0.99 13.81-7.78 26.23-9.17 39.73z" fill="none"/>
<path stroke="#ffffff" stroke-width="2" stroke-miterlimit="10" d="m304 446c1.287 9.297-0.402 17.773 3 26 3.268 7.902 3.598 13.798 4 24 0.43 10.895 2.975 21.045 4.781 31.736 1.917 11.344 0.345 26.659 5.219 36.91 5.229-7.432 0.975-20.279 1-28.646 0.036-12.159 0.549-24.047-0.052-36.429-0.584-12.06-1.49-22.954-2.972-34.571-1.934-15.172-3.575-11.692-13.777-19.897-0.265 1.276-0.291 2.575-0.199 3.897" fill="none"/>
<path stroke="#ffffff" stroke-width="2" stroke-miterlimit="10" d="m264 582c-1.601-3.646-4.102-6.441-7.853-6.846 1.652 8.261-6.536 8.467-10.945 3.623-2.921-3.21-2.235-11.296-3.203-15.372-5.818 8.034-0.963 30.837 5.977 36.618 4.585 3.819 14.233 3.42 20.023 5.226 7.028 2.192 11.446 4.38 19 4.751 17.69 0.869 82.987-0.598 78.849-29.872-4.313-0.086-8.99 0.975-10.896 5.351 0.802-5.272 0.33-11.977-5.733-13.749-7.875-2.303-6.785 4.318-10 8.489-7.569 9.822-7.751 0.627-17.972-3.064-2.438 2.683-3.983 6.184-4.395 9.694-9.921-0.983-18.128 3.575-27.075 4.926-11.048 1.668-16.809-6.754-25.777-7.774" fill="none"/>
<path stroke="#ffffff" stroke-width="2" stroke-miterlimit="10" d="m337 362c1.81 8.181 4.325 14.241 4.98 22.612 0.579 7.404 2.541 12.916 3.02 20.388 0.4 6.261 0.761 12.987 1.052 19 0.315 6.524 2.964 14.267 3 19.948 0.08 11.96-10.07 18.15-10.05 31.05 0.022 12.684 1.441 24.11 2.171 36.829 4.161 3.692 8.14 18.986 2.729 24.175 7.341 10.16-5.069 27.448-0.9 38.996" fill="none"/>
<path stroke="#ffffff" stroke-width="2" stroke-miterlimit="10" d="m264 187c1.047 6.092 4.837 12.18 4.027 19.027-0.83 7.013-5.397 14.477-6.804 21.196-3.87 18.475 8.011 26.555 25.003 27.551 19.963 1.171 19.44-22.341 10.97-35.874-3.938-6.292-10.457-10.505-15.443-15.875-4.674-5.034-7.468-13.692-13.975-15.751-2.866-0.907-2.623-1.06-4.777-0.274" fill="none"/>
<path stroke="#ffffff" stroke-width="2" stroke-miterlimit="10" d="m285 239c-15.017-0.758-11.122-20.208-10.801-29.92 3.03 4.635 8.126 8.345 11.553 13.116 2.97 4.13 6.75 17.95-1.75 14.8" fill="none"/>
<path stroke="#ffffff" stroke-width="2" stroke-miterlimit="10" d="m334 608c4.313-0.414 8.317 0.593 12.023 0.422 2.738 2.984 11.774 1.429 15.223 1.578 4.463 0.193 11.075 3.012 16.028-1.729 9.306-8.909 1.144-30.681-6.441-36.119-5.211 2.319-11.883 2.985-16.833 6.849" fill="none"/>
<line y2="269.61" x1="287.66" x2="277.86" stroke="#ffffff" stroke-miterlimit="10" y1="282.66" stroke-width="2" fill="none"/>
<line y2="281.82" x1="287.66" x2="296.02" stroke="#ffffff" stroke-miterlimit="10" y1="270.39" stroke-width="2" fill="none"/>
<metadata fill="#ffffff"><rdf:RDF fill="#ffffff"><cc:Work fill="#ffffff"><dc:format fill="#ffffff">image/svg+xml</dc:format><dc:type rdf:resource="http://purl.org/dc/dcmitype/StillImage" fill="#ffffff"/><cc:license rdf:resource="http://creativecommons.org/licenses/publicdomain/" fill="#ffffff"/><dc:publisher fill="#ffffff"><cc:Agent rdf:about="http://openclipart.org/" fill="#ffffff"><dc:title fill="#ffffff">Openclipart</dc:title></cc:Agent></dc:publisher><dc:title fill="#ffffff">Candle</dc:title><dc:date fill="#ffffff">2012-09-16T09:56:02</dc:date><dc:description fill="#ffffff"/><dc:source fill="#ffffff">https://openclipart.org/detail/172362/candle-by-fractalbee-172362</dc:source><dc:creator fill="#ffffff"><cc:Agent fill="#ffffff"><dc:title fill="#ffffff">Fractalbee</dc:title></cc:Agent></dc:creator><dc:subject fill="#ffffff"><rdf:Bag fill="#ffffff"><rdf:li fill="#ffffff">candle</rdf:li><rdf:li fill="#ffffff">light</rdf:li></rdf:Bag></dc:subject></cc:Work><cc:License rdf:about="http://creativecommons.org/licenses/publicdomain/" fill="#ffffff"><cc:permits rdf:resource="http://creativecommons.org/ns#Reproduction" fill="#ffffff"/><cc:permits rdf:resource="http://creativecommons.org/ns#Distribution" fill="#ffffff"/><cc:permits rdf:resource="http://creativecommons.org/ns#DerivativeWorks" fill="#ffffff"/></cc:License></rdf:RDF></metadata></svg>